<?xml version="1.0" encoding="UTF-8" standalone="no"?>
<!-- Created with Inkscape (http://www.inkscape.org/) -->
<svg xmlns:dc="http://purl.org/dc/elements/1.1/" xmlns:cc="http://creativecommons.org/ns#" xmlns:rdf="http://www.w3.org/1999/02/22-rdf-syntax-ns#" xmlns:svg="http://www.w3.org/2000/svg" xmlns="http://www.w3.org/2000/svg" xmlns:sodipodi="http://sodipodi.sourceforge.net/DTD/sodipodi-0.dtd" xmlns:inkscape="http://www.inkscape.org/namespaces/inkscape" width="210mm" height="100mm" viewBox="0 0 744.09449 354.33071" id="svg2" version="1.1" inkscape:version="0.91 r13725" sodipodi:docname="Looping.svg">
  <defs id="defs4"/>
  <sodipodi:namedview id="base" pagecolor="#ffffff" bordercolor="#666666" borderopacity="1.0" inkscape:pageopacity="0.0" inkscape:pageshadow="2" inkscape:zoom="0.98994949" inkscape:cx="554.13307" inkscape:cy="43.941682" inkscape:document-units="px" inkscape:current-layer="layer1" showgrid="false" inkscape:window-width="1920" inkscape:window-height="1018" inkscape:window-x="-8" inkscape:window-y="-8" inkscape:window-maximized="1"/>
  <metadata id="metadata7">
    <rdf:RDF>
      <cc:Work rdf:about="">
        <dc:format>image/svg+xml</dc:format>
        <dc:type rdf:resource="http://purl.org/dc/dcmitype/StillImage"/>
        <dc:title/>
      </cc:Work>
    </rdf:RDF>
  </metadata>
  <g inkscape:label="Calque 1" inkscape:groupmode="layer" id="layer1" transform="translate(0,-698.0315)">
    <g id="g4170" transform="matrix(1.2118829,0,0,1.2118829,-66.711112,656.02715)">
      <g id="text4136" style="font-style:normal;font-weight:normal;font-size:214.39544678px;line-height:125%;font-family:sans-serif;letter-spacing:0px;word-spacing:0px;fill:#0000ff;fill-opacity:1;stroke:none;stroke-width:1px;stroke-linecap:butt;stroke-linejoin:miter;stroke-opacity:1" transform="matrix(0.83957007,0,0,1.1910858,463.29043,-251.47317)">
        <path sodipodi:nodetypes="ccsscsccscscsscscccsscsccscscsccscsscccsscscc" inkscape:connector-curvature="0" id="path4141" style="font-style:italic;font-variant:normal;font-weight:normal;font-stretch:semi-expanded;font-family:'Harlow Solid Italic';-inkscape-font-specification:'Harlow Solid Italic, Italic Semi-Expanded';fill:#0000ff;fill-opacity:1" d="m -317.23313,320.15433 -31.40558,77.15305 187.16337,0.42405 c 9.70077,0.022 14.55125,3.34992 14.55125,10.04978 0,4.74573 -1.70986,8.40972 -5.12958,10.99196 -3.41972,2.65202 -8.16548,3.99141 -14.23719,3.97804 l -192.50232,-0.42405 -1.25622,2.93119 c -4.88531,10.88727 -8.72377,18.52929 -11.51538,22.92607 -2.79161,4.39678 -6.4207,8.65398 -10.88727,12.77161 -11.65496,10.67789 -25.05468,16.01684 -40.19915,16.01684 -12.28307,0 -22.40265,-3.66398 -30.35873,-10.99195 -8.02587,-7.32797 -12.03881,-16.64496 -12.03881,-27.95097 0,-7.04881 1.70986,-13.64398 5.12958,-19.78552 3.41972,-6.14153 8.06077,-10.92216 13.92314,-14.34188 7.60713,-4.39678 17.93608,-6.59517 30.98685,-6.59517 l 36.9539,0 31.3009,-77.15305 -12.56224,0 -2.8265,0 c -7.8165,0 -11.72475,-3.45461 -11.72475,-10.36384 0,-4.53637 1.70986,-8.09567 5.12958,-10.6779 3.41972,-2.65203 8.16545,-3.97804 14.2372,-3.97804 l 17.90118,0 4.81552,-11.82944 c 9.14251,-22.61202 23.10055,-33.91803 41.87411,-33.91803 9.56125,0 17.51733,3.03587 23.86824,9.10762 6.35091,6.00195 9.52637,13.53929 9.52637,22.61202 0,11.58517 -4.60615,21.00685 -13.81846,28.26502 -9.21231,7.18839 -21.18132,10.78259 -35.90705,10.78259 z m 10.15448,-25.01978 4.81552,0 c 5.23426,0 9.70083,-1.29112 13.39971,-3.87336 3.76867,-2.65203 5.65301,-5.86237 5.65301,-9.63104 0,-5.58322 -2.61713,-8.37483 -7.8514,-8.37483 -4.74573,0 -9.10761,4.88531 -13.08566,14.65594 z m -81.23578,127.19261 -27.53223,0 c -13.67887,0 -20.51831,4.85042 -20.51831,14.55125 0,3.97804 1.50049,7.29307 4.50147,9.9451 3.00097,2.72182 6.76964,4.08273 11.30601,4.08273 6.21133,0 12.17839,-2.58224 17.90118,-7.74671 5.79259,-5.09469 10.57321,-12.03881 14.34188,-20.83237 z"/>
        <path inkscape:connector-curvature="0" id="path4143" style="font-style:italic;font-variant:normal;font-weight:normal;font-stretch:semi-expanded;font-family:'Harlow Solid Italic';-inkscape-font-specification:'Harlow Solid Italic, Italic Semi-Expanded';fill:#0000ff;fill-opacity:1" d="m -253.04834,312.19825 q 15.17937,0 24.9151,9.63104 9.84041,9.63105 9.84041,24.49636 0,11.20132 -5.12957,22.29796 -5.12958,10.99196 -13.29503,17.58713 -5.44364,4.29209 -11.30601,5.96706 -5.75769,1.57028 -16.22622,1.57028 -17.0637,0 -23.03076,-4.08273 -14.02783,-9.63104 -14.02783,-28.47439 0,-19.89021 14.34188,-34.44146 14.34189,-14.55125 33.91803,-14.55125 z m -2.51244,22.29796 q -7.74671,0 -14.13252,7.64203 -6.3858,7.64202 -6.3858,16.85433 0,12.14349 13.60909,12.14349 7.95608,0 12.24818,-4.92021 7.11859,-8.06077 7.11859,-18.42461 0,-5.96706 -3.45461,-9.63104 -3.45461,-3.66399 -9.00293,-3.66399 z"/>
        <path inkscape:connector-curvature="0" id="path4145" style="font-style:italic;font-variant:normal;font-weight:normal;font-stretch:semi-expanded;font-family:'Harlow Solid Italic';-inkscape-font-specification:'Harlow Solid Italic, Italic Semi-Expanded';fill:#0000ff;fill-opacity:1" d="m -162.30954,312.19825 q 15.17937,0 24.9151,9.63104 9.84041,9.63105 9.84041,24.49636 0,11.20132 -5.12958,22.29796 -5.12958,10.99196 -13.29503,17.58713 -5.44363,4.29209 -11.30601,5.96706 -5.75769,1.57028 -16.22621,1.57028 -17.0637,0 -23.03077,-4.08273 -14.02782,-9.63104 -14.02782,-28.47439 0,-19.89021 14.34188,-34.44146 14.34188,-14.55125 33.91803,-14.55125 z m -2.51245,22.29796 q -7.74671,0 -14.13251,7.64203 -6.3858,7.64202 -6.3858,16.85433 0,12.14349 13.60909,12.14349 7.95608,0 12.24817,-4.92021 7.1186,-8.06077 7.1186,-18.42461 0,-5.96706 -3.45461,-9.63104 -3.45462,-3.66399 -9.00294,-3.66399 z"/>
        <path inkscape:connector-curvature="0" id="path4147" style="font-style:italic;font-variant:normal;font-weight:normal;font-stretch:semi-expanded;font-family:'Harlow Solid Italic';-inkscape-font-specification:'Harlow Solid Italic, Italic Semi-Expanded';fill:#0000ff;fill-opacity:1" d="m -101.25467,385.58263 -27.32288,67.20794 q -5.65301,13.92315 -16.54028,13.92315 -4.18741,0 -7.1186,-2.82651 -3.03587,-2.72181 -3.03587,-6.59517 0,-3.24524 2.61713,-9.84042 l 50.45833,-124.3661 q 3.873359,-9.42168 13.39972,-9.42168 6.595172,0 10.468527,6.28112 7.32797,-7.74671 17.901183,-7.74671 10.991954,0 17.691811,8.37482 6.804543,8.27014 6.804543,21.87922 0,25.75258 -16.016847,41.9788 -5.234264,5.33895 -10.782583,7.32797 -5.54832,1.98902 -15.493421,1.98902 -10.677899,0 -14.760624,-1.4656 -3.978041,-1.46559 -8.270139,-6.69985 z m 8.584194,-21.3558 q 2.617132,4.60615 4.920208,5.96706 2.407762,1.36091 7.53734,1.36091 7.432655,0 11.620066,-5.54832 8.479507,-11.20133 8.479507,-23.03076 0,-10.15447 -9.631045,-10.15447 -10.573213,0 -15.179365,12.24817 -0.523427,1.36091 -0.837482,2.30308 l -6.909229,16.85433 z"/>
        <path inkscape:connector-curvature="0" id="path4149" style="font-style:italic;font-variant:normal;font-weight:normal;font-stretch:semi-expanded;font-family:'Harlow Solid Italic';-inkscape-font-specification:'Harlow Solid Italic, Italic Semi-Expanded';fill:#0000ff;fill-opacity:1" d="m -3.0365106,370.92669 11.8294375,0 q 13.1903441,0 13.1903441,9.31699 0,6.3858 -4.710837,9.9451 -4.606152,3.5593 -12.9809743,3.5593 l -16.6449597,0 q -9.212305,0 -14.551253,-3.76867 -5.234264,-3.76867 -5.234264,-10.25916 0,-3.45461 2.198391,-8.79356 l 17.27307,-42.50223 1.151538,-2.93118 q 4.8155232,-11.82944 15.4934216,-11.82944 4.3967813,0 7.5373404,2.93119 3.245243,2.93119 3.245243,7.01391 0,3.34993 -2.826502,10.25916 L -3.0365106,370.92669 Z M 10.781947,280.26924 q 6.071746,0 10.259157,4.29209 4.292096,4.18741 4.292096,10.25916 0,6.07175 -4.292096,10.36384 -4.187411,4.18741 -10.259157,4.18741 -6.0717463,0 -10.36384346,-4.18741 -4.18741124,-4.29209 -4.18741124,-10.36384 0,-6.07175 4.18741124,-10.25916 4.29209716,-4.29209 10.36384346,-4.29209 z"/>
        <path inkscape:connector-curvature="0" id="path4151" style="font-style:italic;font-variant:normal;font-weight:normal;font-stretch:semi-expanded;font-family:'Harlow Solid Italic';-inkscape-font-specification:'Harlow Solid Italic, Italic Semi-Expanded';fill:#0000ff;fill-opacity:1" d="m 107.56912,370.92669 12.56223,0 q 13.29503,0 13.29503,9.31699 0,6.3858 -4.71083,9.9451 -4.71084,3.5593 -12.98098,3.5593 l -21.879212,0 q -6.385794,0 -10.78257,-3.87336 -4.292096,-3.87335 -4.292096,-9.73573 0,-3.5593 2.931188,-10.6779 l 9.21229,-22.82139 q 1.465598,-3.5593 1.570278,-5.75769 0.10469,-2.51244 -2.093698,-4.29209 -2.093708,-1.77965 -5.443634,-1.77965 -10.782573,0 -17.377745,16.22621 l -12.352863,30.35873 q -5.54832,13.81846 -16.540274,13.81846 -4.501467,0 -7.642025,-2.72182 -3.140558,-2.72181 -3.140558,-6.69985 0,-2.93119 1.674964,-7.01392 l 1.151538,-2.8265 21.146426,-52.13327 q 4.082726,-10.15447 13.923142,-10.15447 8.060766,0 11.515383,7.1186 11.201308,-8.58419 21.355768,-8.58419 9.840418,0 16.226218,5.653 6.3858,5.65301 6.3858,14.34188 0,4.81553 -2.30307,10.57322 l -11.4107,28.16034 z"/>
        <path inkscape:connector-curvature="0" id="path4153" style="font-style:italic;font-variant:normal;font-weight:normal;font-stretch:semi-expanded;font-family:'Harlow Solid Italic';-inkscape-font-specification:'Harlow Solid Italic, Italic Semi-Expanded';fill:#0000ff;fill-opacity:1" d="m 196.88897,396.67927 12.56223,0 q 13.29503,0 13.29503,9.2123 0,6.3858 -4.71083,9.9451 -4.71084,3.66399 -12.98098,3.66399 l -17.37775,0 -4.39678,10.78258 q -16.01685,39.25698 -46.79432,39.25698 -16.12154,0 -26.79943,-9.9451 -10.782588,-9.9451 -10.782588,-24.9151 0,-9.73573 5.234268,-18.31992 5.12957,-8.47951 14.13251,-13.5044 11.09664,-6.17643 29.8353,-6.17643 l 22.50734,0 3.24524,-8.16546 q -6.59517,3.97804 -12.45755,3.97804 -11.20132,0 -18.21524,-7.74671 -6.90922,-7.74671 -6.90922,-20.20425 0,-20.09958 14.13251,-36.22111 14.13251,-16.12153 31.71964,-16.12153 12.87629,0 19.26209,8.37482 4.92021,-8.37482 13.92314,-8.37482 4.39678,0 7.43265,2.93118 3.14056,2.82651 3.14056,6.90923 0,3.24525 -2.72181,9.9451 l -26.27601,64.69551 z m -13.60908,-31.40559 8.4795,-20.72768 q 1.04686,-2.61713 1.04686,-4.2921 0,-3.14056 -2.82651,-5.23426 -2.72181,-2.09371 -6.90923,-2.09371 -7.53734,0 -14.44656,8.68888 -6.80455,8.58419 -6.80455,18.21524 0,10.99195 10.25916,10.99195 8.89825,0 11.20133,-5.54832 z m -21.98391,54.22698 -18.11056,0 q -9.42167,0 -14.65593,3.97804 -5.12958,3.97804 -5.12958,11.20132 0,4.92021 3.5593,8.37482 3.5593,3.45462 8.79356,3.45462 7.53734,0 13.19034,-5.96706 5.65301,-5.96706 12.35287,-21.04174 z"/>
      </g>
      <path sodipodi:nodetypes="ccccc" inkscape:connector-curvature="0" id="path4141-2" style="font-style:italic;font-variant:normal;font-weight:normal;font-stretch:semi-expanded;font-size:214.39544678px;line-height:125%;font-family:'Harlow Solid Italic';-inkscape-font-specification:'Harlow Solid Italic, Italic Semi-Expanded';letter-spacing:0px;word-spacing:0px;fill:#0000ff;fill-opacity:1;stroke:none;stroke-width:1px;stroke-linecap:butt;stroke-linejoin:miter;stroke-opacity:1" d="m 393.08617,221.98709 136.70662,-0.25253 c 16.321,0.077 16.37124,30.99898 -0.002,30.55831 l -138.1797,0 c -18.87512,0.2143 -19.07205,-30.70503 1.47485,-30.30578 z"/>
    </g>
  </g>
</svg>